<?xml version="1.0" encoding="UTF-8"?>
<!DOCTYPE svg PUBLIC "-//W3C//DTD SVG 1.1//EN" "http://www.w3.org/Graphics/SVG/1.1/DTD/svg11.dtd">
<svg xmlns="http://www.w3.org/2000/svg" version="1.1" width="500px" height="500px" style="shape-rendering:geometricPrecision; text-rendering:geometricPrecision; image-rendering:optimizeQuality; fill-rule:evenodd; clip-rule:evenodd" xmlns:xlink="http://www.w3.org/1999/xlink">
<g><path style="opacity:0.224" fill="#d5a7d7" d="M 251.5,85.5 C 250.475,85.8966 250.308,86.5632 251,87.5C 253.167,89.6667 255.333,91.8333 257.5,94C 256.906,94.4643 256.239,94.631 255.5,94.5C 254.833,94.1667 254.167,93.8333 253.5,93.5C 243.909,83.4382 232.242,76.9382 218.5,74C 211.477,73.3766 204.477,73.5432 197.5,74.5C 217.097,69.9906 235.097,73.6572 251.5,85.5 Z"/></g>
<g><path style="opacity:1" fill="#ad53b7" d="M 253.5,93.5 C 252.883,93.6107 252.383,93.944 252,94.5C 249.261,91.1256 245.928,88.4589 242,86.5C 240.968,88.1445 239.801,88.4779 238.5,87.5C 237.5,88.1667 236.5,88.8333 235.5,89.5C 234.549,88.6744 233.549,88.5078 232.5,89C 233.758,90.7409 234.758,92.5742 235.5,94.5C 218.147,85.7378 199.814,81.7378 180.5,82.5C 185.216,77.9771 190.883,75.3104 197.5,74.5C 204.477,73.5432 211.477,73.3766 218.5,74C 232.242,76.9382 243.909,83.4382 253.5,93.5 Z"/></g>
<g><path style="opacity:1" fill="#bb68c3" d="M 180.5,82.5 C 199.814,81.7378 218.147,85.7378 235.5,94.5C 237.088,97.1065 236.255,98.4398 233,98.5C 231.289,98.5607 229.956,97.8941 229,96.5C 228.326,97.5784 227.326,98.2451 226,98.5C 220.704,98.6511 215.371,97.9844 210,96.5C 209,97.8333 208,99.1667 207,100.5C 204.208,99.7422 201.375,98.7422 198.5,97.5C 195.961,98.1153 193.461,98.7819 191,99.5C 185.554,99.2775 180.054,99.2775 174.5,99.5C 174.5,100.5 174.5,101.5 174.5,102.5C 172.473,102.662 170.473,102.495 168.5,102C 169.634,100.984 169.301,100.317 167.5,100C 170,99.1667 170.167,98 168,96.5C 167.221,99.0972 166.721,99.0972 166.5,96.5C 168.031,95.0755 167.698,94.4088 165.5,94.5C 169.898,89.7705 174.898,85.7705 180.5,82.5 Z"/></g>
<g><path style="opacity:1" fill="#b55cbc" d="M 235.5,94.5 C 238.432,95.7997 240.766,97.7997 242.5,100.5C 241.761,100.369 241.094,100.536 240.5,101C 241.833,102 243.167,103 244.5,104C 240.271,105.299 236.104,106.799 232,108.5C 230.893,108.415 229.893,108.081 229,107.5C 228.275,109.158 227.108,109.658 225.5,109C 225.957,108.586 226.291,108.086 226.5,107.5C 225,107.167 223.5,106.833 222,106.5C 210.27,107.079 198.604,107.745 187,108.5C 186.439,107.978 185.772,107.645 185,107.5C 179.299,109.292 173.632,109.958 168,109.5C 166.027,109.691 164.527,109.024 163.5,107.5C 164.304,106.059 164.971,104.559 165.5,103C 164.327,101.174 164.327,99.3405 165.5,97.5C 165.5,96.8333 165.833,96.5 166.5,96.5C 166.721,99.0972 167.221,99.0972 168,96.5C 170.167,98 170,99.1667 167.5,100C 169.301,100.317 169.634,100.984 168.5,102C 170.473,102.495 172.473,102.662 174.5,102.5C 174.5,101.5 174.5,100.5 174.5,99.5C 180.054,99.2775 185.554,99.2775 191,99.5C 193.461,98.7819 195.961,98.1153 198.5,97.5C 201.375,98.7422 204.208,99.7422 207,100.5C 208,99.1667 209,97.8333 210,96.5C 215.371,97.9844 220.704,98.6511 226,98.5C 227.326,98.2451 228.326,97.5784 229,96.5C 229.956,97.8941 231.289,98.5607 233,98.5C 236.255,98.4398 237.088,97.1065 235.5,94.5 Z"/></g>
<g><path style="opacity:1" fill="#67167d" d="M 328.5,109.5 C 325.993,108.108 323.327,107.108 320.5,106.5C 315.672,104.441 310.672,103.108 305.5,102.5C 307.849,100.659 310.515,99.3257 313.5,98.5C 315.774,98.7151 317.941,99.3818 320,100.5C 323.108,99.669 322.941,98.8357 319.5,98C 319.833,97.6667 320.167,97.3333 320.5,97C 325.5,96.3333 330.5,96.3333 335.5,97C 334.377,98.0437 333.044,98.7104 331.5,99C 334.562,99.7415 337.562,99.5748 340.5,98.5C 341.833,99.1667 343.167,99.8333 344.5,100.5C 345.583,101.365 345.749,102.365 345,103.5C 342.258,104.57 339.758,106.07 337.5,108C 334.522,108.696 331.522,109.196 328.5,109.5 Z"/></g>
<g><path style="opacity:1" fill="#772b85" d="M 354.5,107.5 C 352.851,106.286 351.185,104.953 349.5,103.5C 348.065,104.824 347.065,106.49 346.5,108.5C 342.626,109.236 338.96,110.569 335.5,112.5C 337.636,113.969 338.97,115.969 339.5,118.5C 336.124,115.122 332.457,112.122 328.5,109.5C 331.522,109.196 334.522,108.696 337.5,108C 339.758,106.07 342.258,104.57 345,103.5C 345.749,102.365 345.583,101.365 344.5,100.5C 343.167,99.8333 341.833,99.1667 340.5,98.5C 337.562,99.5748 334.562,99.7415 331.5,99C 333.044,98.7104 334.377,98.0437 335.5,97C 330.5,96.3333 325.5,96.3333 320.5,97C 320.167,97.3333 319.833,97.6667 319.5,98C 322.941,98.8357 323.108,99.669 320,100.5C 317.941,99.3818 315.774,98.7151 313.5,98.5C 315.493,96.8368 317.826,95.6701 320.5,95C 330.457,93.284 339.79,94.9507 348.5,100C 351.118,102.106 353.118,104.606 354.5,107.5 Z"/></g>
<g><path style="opacity:1" fill="#81258f" d="M 354.5,107.5 C 353.521,109.145 352.188,110.479 350.5,111.5C 353.619,112.694 353.952,114.194 351.5,116C 350.584,116.374 349.75,116.874 349,117.5C 346.07,113.506 344.236,114.172 343.5,119.5C 344.59,120.609 344.59,121.609 343.5,122.5C 342.735,121.388 341.735,120.721 340.5,120.5C 340.167,119.833 339.833,119.167 339.5,118.5C 338.97,115.969 337.636,113.969 335.5,112.5C 338.96,110.569 342.626,109.236 346.5,108.5C 347.065,106.49 348.065,104.824 349.5,103.5C 351.185,104.953 352.851,106.286 354.5,107.5 Z"/></g>
<g><path style="opacity:1" fill="#ad50b8" d="M 165.5,97.5 C 164.327,99.3405 164.327,101.174 165.5,103C 164.971,104.559 164.304,106.059 163.5,107.5C 164.527,109.024 166.027,109.691 168,109.5C 173.632,109.958 179.299,109.292 185,107.5C 185.772,107.645 186.439,107.978 187,108.5C 198.604,107.745 210.27,107.079 222,106.5C 223.5,106.833 225,107.167 226.5,107.5C 226.291,108.086 225.957,108.586 225.5,109C 227.108,109.658 228.275,109.158 229,107.5C 229.893,108.081 230.893,108.415 232,108.5C 236.104,106.799 240.271,105.299 244.5,104C 243.167,103 241.833,102 240.5,101C 241.094,100.536 241.761,100.369 242.5,100.5C 247.231,103.271 250.564,107.271 252.5,112.5C 252.5,113.833 252.5,115.167 252.5,116.5C 250.064,116.317 247.897,116.984 246,118.5C 239.245,117.723 232.245,117.39 225,117.5C 219.872,118.259 214.705,118.759 209.5,119C 208.584,119.374 207.75,119.874 207,120.5C 202.25,120.103 197.417,119.936 192.5,120C 191.809,118.933 191.309,117.766 191,116.5C 190.667,117.167 190.333,117.833 190,118.5C 188.451,115.997 186.784,115.997 185,118.5C 181.696,116.4 178.196,116.067 174.5,117.5C 175.641,118.425 175.641,119.259 174.5,120C 179.533,120.171 184.533,120.671 189.5,121.5C 189.154,122.696 188.654,122.696 188,121.5C 185.26,123.36 182.76,123.36 180.5,121.5C 176.775,122.349 172.941,122.349 169,121.5C 165.784,124.477 162.95,124.143 160.5,120.5C 159.511,116.893 159.177,113.226 159.5,109.5C 160.367,106.092 161.533,102.758 163,99.5C 163.708,98.6195 164.542,97.9528 165.5,97.5 Z"/></g>
<g><path style="opacity:1" fill="#ac5fb6" d="M 251.5,85.5 C 266.091,97.3438 274.425,112.677 276.5,131.5C 275.833,130.833 275.167,130.167 274.5,129.5C 274.661,125.277 273.994,121.277 272.5,117.5C 271.5,117.5 270.5,117.5 269.5,117.5C 266.523,108.845 261.857,101.179 255.5,94.5C 256.239,94.631 256.906,94.4643 257.5,94C 255.333,91.8333 253.167,89.6667 251,87.5C 250.308,86.5632 250.475,85.8966 251.5,85.5 Z"/></g>
<g><path style="opacity:1" fill="#983b9a" d="M 354.5,107.5 C 358.018,111.018 360.018,115.351 360.5,120.5C 358.801,120.34 357.134,120.506 355.5,121C 352.879,122.654 350.379,124.487 348,126.5C 347,125.167 346,125.167 345,126.5C 344.501,130.152 344.335,133.818 344.5,137.5C 343.85,137.804 343.183,138.137 342.5,138.5C 341.534,136.604 341.201,134.604 341.5,132.5C 341.5,131.5 341.5,130.5 341.5,129.5C 342.268,130.263 342.768,131.263 343,132.5C 343.968,128.104 343.135,124.104 340.5,120.5C 341.735,120.721 342.735,121.388 343.5,122.5C 344.59,121.609 344.59,120.609 343.5,119.5C 344.236,114.172 346.07,113.506 349,117.5C 349.75,116.874 350.584,116.374 351.5,116C 353.952,114.194 353.619,112.694 350.5,111.5C 352.188,110.479 353.521,109.145 354.5,107.5 Z"/></g>
<g><path style="opacity:1" fill="#430f58" d="M 165.5,94.5 C 167.698,94.4088 168.031,95.0755 166.5,96.5C 165.833,96.5 165.5,96.8333 165.5,97.5C 164.542,97.9528 163.708,98.6195 163,99.5C 161.533,102.758 160.367,106.092 159.5,109.5C 157.095,114.112 155.762,119.112 155.5,124.5C 152.579,124.146 150.246,125.146 148.5,127.5C 147.283,130.891 146.283,134.224 145.5,137.5C 145.5,135.5 145.5,133.5 145.5,131.5C 148.263,116.969 154.93,104.636 165.5,94.5 Z"/></g>
<g><path style="opacity:1" fill="#e9c3ef" d="M 320.5,106.5 C 323.327,107.108 325.993,108.108 328.5,109.5C 332.457,112.122 336.124,115.122 339.5,118.5C 339.833,119.167 340.167,119.833 340.5,120.5C 343.135,124.104 343.968,128.104 343,132.5C 342.768,131.263 342.268,130.263 341.5,129.5C 337.744,118.577 330.411,111.077 319.5,107C 319.728,106.601 320.062,106.435 320.5,106.5 Z"/></g>
<g><path style="opacity:1" fill="#a343b2" d="M 159.5,109.5 C 159.177,113.226 159.511,116.893 160.5,120.5C 162.95,124.143 165.784,124.477 169,121.5C 172.941,122.349 176.775,122.349 180.5,121.5C 182.76,123.36 185.26,123.36 188,121.5C 188.654,122.696 189.154,122.696 189.5,121.5C 184.533,120.671 179.533,120.171 174.5,120C 175.641,119.259 175.641,118.425 174.5,117.5C 178.196,116.067 181.696,116.4 185,118.5C 186.784,115.997 188.451,115.997 190,118.5C 190.333,117.833 190.667,117.167 191,116.5C 191.309,117.766 191.809,118.933 192.5,120C 197.417,119.936 202.25,120.103 207,120.5C 207.75,119.874 208.584,119.374 209.5,119C 214.705,118.759 219.872,118.259 225,117.5C 232.245,117.39 239.245,117.723 246,118.5C 247.897,116.984 250.064,116.317 252.5,116.5C 252.5,115.167 252.5,113.833 252.5,112.5C 256.733,117.363 258.899,123.03 259,129.5C 257.467,129.056 255.967,128.723 254.5,128.5C 248.512,128.625 243.012,130.291 238,133.5C 237.667,132.833 237.333,132.167 237,131.5C 236,132.833 235,132.833 234,131.5C 231.688,131.955 229.688,132.955 228,134.5C 226.221,133.521 224.555,133.854 223,135.5C 222.481,134.484 221.647,133.818 220.5,133.5C 209.876,134.124 199.376,134.124 189,133.5C 188.055,133.095 187.388,132.428 187,131.5C 186.333,132.167 185.667,132.833 185,133.5C 183.755,133.539 182.422,133.205 181,132.5C 179.739,132.759 178.739,133.426 178,134.5C 173.126,134.438 168.292,134.105 163.5,133.5C 162.5,134.167 161.5,134.833 160.5,135.5C 159.808,134.975 159.308,134.308 159,133.5C 158.153,141.114 159.653,148.114 163.5,154.5C 165.159,159.827 167.826,164.493 171.5,168.5C 176.611,175.278 182.945,180.611 190.5,184.5C 197.361,188.454 204.694,190.787 212.5,191.5C 209.167,191.5 205.833,191.5 202.5,191.5C 181.359,185.027 167.026,171.36 159.5,150.5C 158.743,147.01 157.743,143.677 156.5,140.5C 155.806,135.195 155.472,129.862 155.5,124.5C 155.762,119.112 157.095,114.112 159.5,109.5 Z"/></g>
<g><path style="opacity:1" fill="#9a3aaa" d="M 305.5,102.5 C 310.672,103.108 315.672,104.441 320.5,106.5C 320.062,106.435 319.728,106.601 319.5,107C 330.411,111.077 337.744,118.577 341.5,129.5C 341.5,130.5 341.5,131.5 341.5,132.5C 339.744,133.552 339.077,135.219 339.5,137.5C 332.629,137.891 326.129,137.891 320,137.5C 317.551,137.861 315.218,138.528 313,139.5C 312.419,130.152 314.252,121.319 318.5,113C 316.741,112.02 315.074,111.353 313.5,111C 318.656,108.615 318.156,107.115 312,106.5C 308.874,108.044 306.04,107.711 303.5,105.5C 301.146,106.998 298.813,108.332 296.5,109.5C 298.637,106.027 301.637,103.694 305.5,102.5 Z"/></g>
<g><path style="opacity:1" fill="#7f2b8b" d="M 360.5,120.5 C 361.798,128.755 361.131,136.755 358.5,144.5C 359.088,140.108 359.088,135.774 358.5,131.5C 357.575,132.641 356.741,132.641 356,131.5C 352.944,133.836 349.944,136.169 347,138.5C 346.329,137.748 345.496,137.414 344.5,137.5C 344.335,133.818 344.501,130.152 345,126.5C 346,125.167 347,125.167 348,126.5C 350.379,124.487 352.879,122.654 355.5,121C 357.134,120.506 358.801,120.34 360.5,120.5 Z"/></g>
<g><path style="opacity:1" fill="#661571" d="M 155.5,124.5 C 155.472,129.862 155.806,135.195 156.5,140.5C 153.757,141.326 151.257,142.659 149,144.5C 148.667,143.833 148.333,143.167 148,142.5C 147.781,143.938 147.281,145.271 146.5,146.5C 145.516,143.572 145.183,140.572 145.5,137.5C 146.283,134.224 147.283,130.891 148.5,127.5C 150.246,125.146 152.579,124.146 155.5,124.5 Z"/></g>
<g><path style="opacity:1" fill="#9130a4" d="M 341.5,132.5 C 341.201,134.604 341.534,136.604 342.5,138.5C 343.183,138.137 343.85,137.804 344.5,137.5C 344.5,140.5 344.5,143.5 344.5,146.5C 343.5,146.5 342.5,146.5 341.5,146.5C 341.66,148.199 341.494,149.866 341,151.5C 340.333,150.833 339.667,150.167 339,149.5C 338,150.833 337,150.833 336,149.5C 332.066,150.039 328.233,150.873 324.5,152C 318.5,152.667 312.5,152.667 306.5,152C 304.364,148.318 304.864,144.818 308,141.5C 308.667,137.5 308.667,133.5 308,129.5C 306.237,130.944 304.237,131.944 302,132.5C 301.167,131.5 300.333,130.5 299.5,129.5C 298.914,129.709 298.414,130.043 298,130.5C 296.731,126.351 296.065,122.018 296,117.5C 295.993,124.425 295.16,131.092 293.5,137.5C 293.334,130.159 293.5,122.826 294,115.5C 294.573,113.359 295.406,111.359 296.5,109.5C 298.813,108.332 301.146,106.998 303.5,105.5C 306.04,107.711 308.874,108.044 312,106.5C 318.156,107.115 318.656,108.615 313.5,111C 315.074,111.353 316.741,112.02 318.5,113C 314.252,121.319 312.419,130.152 313,139.5C 315.218,138.528 317.551,137.861 320,137.5C 326.129,137.891 332.629,137.891 339.5,137.5C 339.077,135.219 339.744,133.552 341.5,132.5 Z"/></g>
<g><path style="opacity:1" fill="#9837a8" d="M 253.5,93.5 C 254.167,93.8333 254.833,94.1667 255.5,94.5C 261.857,101.179 266.523,108.845 269.5,117.5C 270.5,117.5 271.5,117.5 272.5,117.5C 273.994,121.277 274.661,125.277 274.5,129.5C 274.662,131.527 274.495,133.527 274,135.5C 273.618,130.305 272.451,125.305 270.5,120.5C 269.033,119.305 267.533,119.305 266,120.5C 264.832,119.491 263.665,118.491 262.5,117.5C 259.925,120.841 260.258,124.008 263.5,127C 261.656,129.804 260.989,132.97 261.5,136.5C 261.808,138.924 261.474,141.257 260.5,143.5C 258.207,141.805 255.873,141.138 253.5,141.5C 252.304,141.846 252.304,142.346 253.5,143C 251.833,143.333 250.167,143.667 248.5,144C 249.978,145.193 251.312,145.693 252.5,145.5C 251.5,145.833 250.5,146.167 249.5,146.5C 246.307,146.112 242.973,146.112 239.5,146.5C 237.083,145.596 234.583,144.929 232,144.5C 230.128,145.035 228.462,145.035 227,144.5C 226.692,145.308 226.192,145.975 225.5,146.5C 224.833,145.5 224.167,144.5 223.5,143.5C 221.533,144.953 219.367,145.953 217,146.5C 214.478,145.719 211.811,145.386 209,145.5C 197.91,146.322 186.743,146.822 175.5,147C 173.875,147.853 173.542,148.853 174.5,150C 173.833,150.167 173.167,150.333 172.5,150.5C 170.019,148.836 167.353,148.336 164.5,149C 165.167,149.333 165.833,149.667 166.5,150C 164.883,151.092 163.883,152.592 163.5,154.5C 159.653,148.114 158.153,141.114 159,133.5C 159.308,134.308 159.808,134.975 160.5,135.5C 161.5,134.833 162.5,134.167 163.5,133.5C 168.292,134.105 173.126,134.438 178,134.5C 178.739,133.426 179.739,132.759 181,132.5C 182.422,133.205 183.755,133.539 185,133.5C 185.667,132.833 186.333,132.167 187,131.5C 187.388,132.428 188.055,133.095 189,133.5C 199.376,134.124 209.876,134.124 220.5,133.5C 221.647,133.818 222.481,134.484 223,135.5C 224.555,133.854 226.221,133.521 228,134.5C 229.688,132.955 231.688,131.955 234,131.5C 235,132.833 236,132.833 237,131.5C 237.333,132.167 237.667,132.833 238,133.5C 243.012,130.291 248.512,128.625 254.5,128.5C 255.967,128.723 257.467,129.056 259,129.5C 258.899,123.03 256.733,117.363 252.5,112.5C 250.564,107.271 247.231,103.271 242.5,100.5C 240.766,97.7997 238.432,95.7997 235.5,94.5C 234.758,92.5742 233.758,90.7409 232.5,89C 233.549,88.5078 234.549,88.6744 235.5,89.5C 236.5,88.8333 237.5,88.1667 238.5,87.5C 239.801,88.4779 240.968,88.1445 242,86.5C 245.928,88.4589 249.261,91.1256 252,94.5C 252.383,93.944 252.883,93.6107 253.5,93.5 Z"/></g>
<g><path style="opacity:1" fill="#5a0d72" d="M 358.5,144.5 C 353.473,164.213 345.473,182.546 334.5,199.5C 332.989,200.502 331.322,201.169 329.5,201.5C 329.532,203.619 328.532,204.952 326.5,205.5C 329.699,193.708 333.366,182.041 337.5,170.5C 340.755,162.821 343.088,154.821 344.5,146.5C 344.5,143.5 344.5,140.5 344.5,137.5C 345.496,137.414 346.329,137.748 347,138.5C 349.944,136.169 352.944,133.836 356,131.5C 356.741,132.641 357.575,132.641 358.5,131.5C 359.088,135.774 359.088,140.108 358.5,144.5 Z"/></g>
<g><path style="opacity:0.694" fill="#a25fa4" d="M 276.5,137.5 C 276.904,142.783 276.238,147.783 274.5,152.5C 274.741,147.306 275.407,142.306 276.5,137.5 Z"/></g>
<g><path style="opacity:1" fill="#9a3f92" d="M 145.5,131.5 C 145.5,133.5 145.5,135.5 145.5,137.5C 145.183,140.572 145.516,143.572 146.5,146.5C 147.281,145.271 147.781,143.938 148,142.5C 148.333,143.167 148.667,143.833 149,144.5C 151.257,142.659 153.757,141.326 156.5,140.5C 157.743,143.677 158.743,147.01 159.5,150.5C 157.605,151.703 155.605,152.869 153.5,154C 152.663,155.011 152.33,156.178 152.5,157.5C 150.876,157.64 149.71,156.973 149,155.5C 148.505,157.473 148.338,159.473 148.5,161.5C 144.627,151.76 143.627,141.76 145.5,131.5 Z"/></g>
<g><path style="opacity:1" fill="#8d2ba1" d="M 261.5,136.5 C 262.676,142.683 262.676,149.017 261.5,155.5C 256.496,155.665 251.496,155.665 246.5,155.5C 244.192,155.365 242.192,156.031 240.5,157.5C 239.784,156.689 238.95,156.022 238,155.5C 235.632,156.107 233.466,156.107 231.5,155.5C 230.459,157.991 229.626,157.991 229,155.5C 224.592,158.607 220.092,159.274 215.5,157.5C 215.167,158.167 214.833,158.833 214.5,159.5C 211.311,155.93 207.978,155.93 204.5,159.5C 202.722,159.431 200.889,159.097 199,158.5C 191.707,159.83 184.373,160.83 177,161.5C 171.197,159.673 169.364,162.007 171.5,168.5C 167.826,164.493 165.159,159.827 163.5,154.5C 163.883,152.592 164.883,151.092 166.5,150C 165.833,149.667 165.167,149.333 164.5,149C 167.353,148.336 170.019,148.836 172.5,150.5C 173.167,150.333 173.833,150.167 174.5,150C 173.542,148.853 173.875,147.853 175.5,147C 186.743,146.822 197.91,146.322 209,145.5C 211.811,145.386 214.478,145.719 217,146.5C 219.367,145.953 221.533,144.953 223.5,143.5C 224.167,144.5 224.833,145.5 225.5,146.5C 226.192,145.975 226.692,145.308 227,144.5C 228.462,145.035 230.128,145.035 232,144.5C 234.583,144.929 237.083,145.596 239.5,146.5C 242.973,146.112 246.307,146.112 249.5,146.5C 250.5,146.167 251.5,145.833 252.5,145.5C 251.312,145.693 249.978,145.193 248.5,144C 250.167,143.667 251.833,143.333 253.5,143C 252.304,142.346 252.304,141.846 253.5,141.5C 255.873,141.138 258.207,141.805 260.5,143.5C 261.474,141.257 261.808,138.924 261.5,136.5 Z"/></g>
<g><path style="opacity:1" fill="#811f99" d="M 344.5,146.5 C 343.088,154.821 340.755,162.821 337.5,170.5C 336.849,169.909 336.182,169.243 335.5,168.5C 334.702,170.078 334.202,171.744 334,173.5C 321.587,172.963 309.087,172.629 296.5,172.5C 296.798,169.664 296.131,169.164 294.5,171C 294.833,171.333 295.167,171.667 295.5,172C 294.365,172.749 293.365,172.583 292.5,171.5C 295.466,167.591 296.633,163.258 296,158.5C 294.983,160.376 294.149,162.376 293.5,164.5C 292.5,164.167 291.833,163.5 291.5,162.5C 292.157,159.025 293.49,155.859 295.5,153C 294.873,150.865 294.373,148.698 294,146.5C 293.5,148.5 293,150.5 292.5,152.5C 292.253,153.713 291.586,154.38 290.5,154.5C 291.379,148.777 292.379,143.111 293.5,137.5C 295.16,131.092 295.993,124.425 296,117.5C 296.065,122.018 296.731,126.351 298,130.5C 298.414,130.043 298.914,129.709 299.5,129.5C 300.333,130.5 301.167,131.5 302,132.5C 304.237,131.944 306.237,130.944 308,129.5C 308.667,133.5 308.667,137.5 308,141.5C 304.864,144.818 304.364,148.318 306.5,152C 312.5,152.667 318.5,152.667 324.5,152C 328.233,150.873 332.066,150.039 336,149.5C 337,150.833 338,150.833 339,149.5C 339.667,150.167 340.333,150.833 341,151.5C 341.494,149.866 341.66,148.199 341.5,146.5C 342.5,146.5 343.5,146.5 344.5,146.5 Z"/></g>
<g><path style="opacity:1" fill="#811e99" d="M 274.5,129.5 C 275.167,130.167 275.833,130.833 276.5,131.5C 276.5,133.5 276.5,135.5 276.5,137.5C 275.407,142.306 274.741,147.306 274.5,152.5C 274.5,153.167 274.5,153.833 274.5,154.5C 272.637,155.967 271.304,157.967 270.5,160.5C 269.675,161.386 268.675,161.719 267.5,161.5C 267.649,160.448 267.483,159.448 267,158.5C 264.816,161.334 265.316,162.668 268.5,162.5C 268.702,164.989 268.202,167.323 267,169.5C 266.74,167.382 265.74,165.716 264,164.5C 263.391,169.021 262.891,173.354 262.5,177.5C 261.614,176.675 261.281,175.675 261.5,174.5C 260.022,174.762 258.689,174.429 257.5,173.5C 258.506,172.604 258.506,171.938 257.5,171.5C 255.854,172.779 254.687,174.445 254,176.5C 253.333,173.833 252.667,173.833 252,176.5C 246.929,176.033 242.095,175.7 237.5,175.5C 235.717,177.023 235.051,179.023 235.5,181.5C 220.69,182.151 205.856,182.151 191,181.5C 191.109,182.769 190.942,183.769 190.5,184.5C 182.945,180.611 176.611,175.278 171.5,168.5C 169.364,162.007 171.197,159.673 177,161.5C 184.373,160.83 191.707,159.83 199,158.5C 200.889,159.097 202.722,159.431 204.5,159.5C 207.978,155.93 211.311,155.93 214.5,159.5C 214.833,158.833 215.167,158.167 215.5,157.5C 220.092,159.274 224.592,158.607 229,155.5C 229.626,157.991 230.459,157.991 231.5,155.5C 233.466,156.107 235.632,156.107 238,155.5C 238.95,156.022 239.784,156.689 240.5,157.5C 242.192,156.031 244.192,155.365 246.5,155.5C 251.496,155.665 256.496,155.665 261.5,155.5C 262.676,149.017 262.676,142.683 261.5,136.5C 260.989,132.97 261.656,129.804 263.5,127C 260.258,124.008 259.925,120.841 262.5,117.5C 263.665,118.491 264.832,119.491 266,120.5C 267.533,119.305 269.033,119.305 270.5,120.5C 272.451,125.305 273.618,130.305 274,135.5C 274.495,133.527 274.662,131.527 274.5,129.5 Z"/></g>
<g><path style="opacity:1" fill="#5b0875" d="M 159.5,150.5 C 167.026,171.36 181.359,185.027 202.5,191.5C 209.821,191.892 216.321,194.558 222,199.5C 222.667,201.5 222.667,203.5 222,205.5C 220.906,207.078 220.072,208.745 219.5,210.5C 217.973,210.427 216.973,211.094 216.5,212.5C 215.685,211.571 214.852,210.571 214,209.5C 213.808,211.577 213.308,213.577 212.5,215.5C 211.583,216.127 210.583,216.461 209.5,216.5C 208.833,216.5 208.5,216.167 208.5,215.5C 211.874,213.16 212.207,210.327 209.5,207C 201.771,203.585 193.771,200.918 185.5,199C 168.26,191.26 155.927,178.76 148.5,161.5C 148.338,159.473 148.505,157.473 149,155.5C 149.71,156.973 150.876,157.64 152.5,157.5C 152.33,156.178 152.663,155.011 153.5,154C 155.605,152.869 157.605,151.703 159.5,150.5 Z"/></g>
<g><path style="opacity:1" fill="#71118a" d="M 337.5,170.5 C 333.366,182.041 329.699,193.708 326.5,205.5C 324.896,206.287 324.229,207.62 324.5,209.5C 322.493,210.679 322.16,210.179 323.5,208C 313.816,207.832 304.149,207.332 294.5,206.5C 295.601,204.606 296.934,203.939 298.5,204.5C 295.516,201.284 292.183,200.784 288.5,203C 289.624,203.249 290.624,203.749 291.5,204.5C 289.314,205.221 287.147,205.887 285,206.5C 284.612,205.572 283.945,204.905 283,204.5C 281.85,205.424 280.85,205.424 280,204.5C 278.806,206.525 277.306,206.859 275.5,205.5C 273.98,206.85 273.313,208.183 273.5,209.5C 272.52,208.019 271.353,206.685 270,205.5C 268.992,205.982 267.825,206.148 266.5,206C 267.696,206.654 267.696,207.154 266.5,207.5C 265.808,206.975 265.308,206.308 265,205.5C 261.193,205.059 257.36,205.559 253.5,207C 252.809,208.067 252.309,209.234 252,210.5C 251.667,209.5 251.333,208.5 251,207.5C 248.519,208.022 246.186,208.022 244,207.5C 242.991,209.025 242.491,210.692 242.5,212.5C 240.123,212.216 237.956,212.216 236,212.5C 236.152,210.924 236.985,209.591 238.5,208.5C 237.369,207.396 236.535,207.729 236,209.5C 234.599,207.808 232.766,207.141 230.5,207.5C 230.649,208.552 230.483,209.552 230,210.5C 229.667,210.167 229.333,209.833 229,209.5C 228.751,210.624 228.251,211.624 227.5,212.5C 226.481,211.313 225.314,210.313 224,209.5C 221.538,210.65 219.204,211.983 217,213.5C 216.601,213.272 216.435,212.938 216.5,212.5C 216.973,211.094 217.973,210.427 219.5,210.5C 226.144,205.125 226.144,199.625 219.5,194C 217.35,192.589 215.016,191.755 212.5,191.5C 204.694,190.787 197.361,188.454 190.5,184.5C 190.942,183.769 191.109,182.769 191,181.5C 205.856,182.151 220.69,182.151 235.5,181.5C 235.051,179.023 235.717,177.023 237.5,175.5C 242.095,175.7 246.929,176.033 252,176.5C 252.667,173.833 253.333,173.833 254,176.5C 254.687,174.445 255.854,172.779 257.5,171.5C 258.506,171.938 258.506,172.604 257.5,173.5C 258.689,174.429 260.022,174.762 261.5,174.5C 261.281,175.675 261.614,176.675 262.5,177.5C 262.891,173.354 263.391,169.021 264,164.5C 265.74,165.716 266.74,167.382 267,169.5C 268.202,167.323 268.702,164.989 268.5,162.5C 265.316,162.668 264.816,161.334 267,158.5C 267.483,159.448 267.649,160.448 267.5,161.5C 268.675,161.719 269.675,161.386 270.5,160.5C 271.304,157.967 272.637,155.967 274.5,154.5C 271.796,163.288 268.129,171.621 263.5,179.5C 262.883,179.389 262.383,179.056 262,178.5C 258.286,183.131 257.786,187.965 260.5,193C 262.809,193.006 264.975,193.172 267,193.5C 269.305,193.027 270.805,191.693 271.5,189.5C 279.677,178.811 286.01,167.145 290.5,154.5C 291.586,154.38 292.253,153.713 292.5,152.5C 293,150.5 293.5,148.5 294,146.5C 294.373,148.698 294.873,150.865 295.5,153C 293.49,155.859 292.157,159.025 291.5,162.5C 291.833,163.5 292.5,164.167 293.5,164.5C 294.149,162.376 294.983,160.376 296,158.5C 296.633,163.258 295.466,167.591 292.5,171.5C 293.365,172.583 294.365,172.749 295.5,172C 295.167,171.667 294.833,171.333 294.5,171C 296.131,169.164 296.798,169.664 296.5,172.5C 309.087,172.629 321.587,172.963 334,173.5C 334.202,171.744 334.702,170.078 335.5,168.5C 336.182,169.243 336.849,169.909 337.5,170.5 Z"/></g>
<g><path style="opacity:1" fill="#8d3c9d" d="M 263.5,179.5 C 260.307,184.723 261.474,188.723 267,191.5C 268.406,190.586 269.906,189.92 271.5,189.5C 270.805,191.693 269.305,193.027 267,193.5C 264.975,193.172 262.809,193.006 260.5,193C 257.786,187.965 258.286,183.131 262,178.5C 262.383,179.056 262.883,179.389 263.5,179.5 Z"/></g>
<g><path style="opacity:1" fill="#942dae" d="M 202.5,191.5 C 205.833,191.5 209.167,191.5 212.5,191.5C 215.016,191.755 217.35,192.589 219.5,194C 226.144,199.625 226.144,205.125 219.5,210.5C 220.072,208.745 220.906,207.078 222,205.5C 222.667,203.5 222.667,201.5 222,199.5C 216.321,194.558 209.821,191.892 202.5,191.5 Z"/></g>
<g><path style="opacity:1" fill="#5c246f" d="M 334.5,199.5 C 328.819,208.869 323.152,218.203 317.5,227.5C 317.5,226.167 317.5,224.833 317.5,223.5C 320.974,219.238 323.974,214.571 326.5,209.5C 326.03,208.537 325.363,208.537 324.5,209.5C 324.229,207.62 324.896,206.287 326.5,205.5C 328.532,204.952 329.532,203.619 329.5,201.5C 331.322,201.169 332.989,200.502 334.5,199.5 Z"/></g>
<g><path style="opacity:1" fill="#640580" d="M 324.5,209.5 C 325.363,208.537 326.03,208.537 326.5,209.5C 323.974,214.571 320.974,219.238 317.5,223.5C 315.548,223.995 313.548,224.328 311.5,224.5C 309.68,224.351 308.18,223.684 307,222.5C 306.581,223.672 305.915,224.672 305,225.5C 297.876,225.68 290.376,225.346 282.5,224.5C 279.424,224.244 276.924,225.244 275,227.5C 271.996,224.911 268.496,224.078 264.5,225C 265.536,226.617 266.703,226.784 268,225.5C 268.432,226.6 267.932,227.267 266.5,227.5C 263.257,228.051 260.09,227.384 257,225.5C 255.095,226.158 253.595,227.325 252.5,229C 249.833,229.333 247.167,229.667 244.5,230C 243.929,231.205 243.262,232.372 242.5,233.5C 237.247,233.658 231.914,233.325 226.5,232.5C 224.705,229.061 222.039,227.728 218.5,228.5C 219.326,229.451 219.492,230.451 219,231.5C 217.68,231.201 216.18,231.034 214.5,231C 210.538,226.29 208.871,226.956 209.5,233C 203.495,232.835 197.495,232.335 191.5,231.5C 191.5,233.167 191.5,234.833 191.5,236.5C 190.5,236.5 189.5,236.5 188.5,236.5C 188.244,238.912 189.244,240.579 191.5,241.5C 190.635,241.564 189.635,241.897 188.5,242.5C 187.668,239.043 186.002,236.21 183.5,234C 183.755,232.674 184.422,231.674 185.5,231C 184.584,230.722 183.918,230.222 183.5,229.5C 184.492,229.672 185.158,229.338 185.5,228.5C 193.424,228.928 200.59,226.928 207,222.5C 208.559,220.783 209.392,218.783 209.5,216.5C 210.583,216.461 211.583,216.127 212.5,215.5C 213.308,213.577 213.808,211.577 214,209.5C 214.852,210.571 215.685,211.571 216.5,212.5C 216.435,212.938 216.601,213.272 217,213.5C 219.204,211.983 221.538,210.65 224,209.5C 225.314,210.313 226.481,211.313 227.5,212.5C 228.251,211.624 228.751,210.624 229,209.5C 229.333,209.833 229.667,210.167 230,210.5C 230.483,209.552 230.649,208.552 230.5,207.5C 232.766,207.141 234.599,207.808 236,209.5C 236.535,207.729 237.369,207.396 238.5,208.5C 236.985,209.591 236.152,210.924 236,212.5C 237.956,212.216 240.123,212.216 242.5,212.5C 242.491,210.692 242.991,209.025 244,207.5C 246.186,208.022 248.519,208.022 251,207.5C 251.333,208.5 251.667,209.5 252,210.5C 252.309,209.234 252.809,208.067 253.5,207C 257.36,205.559 261.193,205.059 265,205.5C 265.308,206.308 265.808,206.975 266.5,207.5C 267.696,207.154 267.696,206.654 266.5,206C 267.825,206.148 268.992,205.982 270,205.5C 271.353,206.685 272.52,208.019 273.5,209.5C 273.313,208.183 273.98,206.85 275.5,205.5C 277.306,206.859 278.806,206.525 280,204.5C 280.85,205.424 281.85,205.424 283,204.5C 283.945,204.905 284.612,205.572 285,206.5C 287.147,205.887 289.314,205.221 291.5,204.5C 290.624,203.749 289.624,203.249 288.5,203C 292.183,200.784 295.516,201.284 298.5,204.5C 296.934,203.939 295.601,204.606 294.5,206.5C 304.149,207.332 313.816,207.832 323.5,208C 322.16,210.179 322.493,210.679 324.5,209.5 Z"/></g>
<g><path style="opacity:1" fill="#ba6cce" d="M 174.5,216.5 C 178.167,216.5 181.833,216.5 185.5,216.5C 180.071,218.012 174.404,218.679 168.5,218.5C 167.508,218.672 166.842,218.338 166.5,217.5C 169.206,217.425 171.873,217.092 174.5,216.5 Z"/></g>
<g><path style="opacity:0.82" fill="#813a88" d="M 174.5,215.5 C 174.5,215.833 174.5,216.167 174.5,216.5C 171.873,217.092 169.206,217.425 166.5,217.5C 162.287,218.082 158.287,219.082 154.5,220.5C 151.167,220.833 147.833,221.167 144.5,221.5C 154.053,217.856 164.053,215.856 174.5,215.5 Z"/></g>
<g><path style="opacity:1" fill="#a238ba" d="M 166.5,217.5 C 166.842,218.338 167.508,218.672 168.5,218.5C 164.036,219.644 159.37,220.31 154.5,220.5C 158.287,219.082 162.287,218.082 166.5,217.5 Z"/></g>
<g><path style="opacity:1" fill="#4a135e" d="M 208.5,215.5 C 208.5,216.167 208.833,216.5 209.5,216.5C 209.392,218.783 208.559,220.783 207,222.5C 200.59,226.928 193.424,228.928 185.5,228.5C 183.879,228.213 182.879,227.213 182.5,225.5C 183.853,224.476 184.52,223.143 184.5,221.5C 187.685,221.02 190.519,221.686 193,223.5C 194.791,221.487 196.125,221.487 197,223.5C 198.011,222.663 199.178,222.33 200.5,222.5C 200.5,221.167 200.5,219.833 200.5,218.5C 201.675,218.719 202.675,218.386 203.5,217.5C 197.537,216.504 191.537,216.171 185.5,216.5C 181.833,216.5 178.167,216.5 174.5,216.5C 174.5,216.167 174.5,215.833 174.5,215.5C 185.751,213.151 197.084,213.151 208.5,215.5 Z"/></g>
<g><path style="opacity:1" fill="#5e0379" d="M 317.5,223.5 C 317.5,224.833 317.5,226.167 317.5,227.5C 316.504,227.414 315.671,227.748 315,228.5C 313.167,232.167 311.333,235.833 309.5,239.5C 308.726,240.711 307.893,240.711 307,239.5C 305.321,246.515 302.821,253.182 299.5,259.5C 298.265,262.33 297.265,265.33 296.5,268.5C 288.021,268.727 279.687,268.727 271.5,268.5C 269.73,269.82 269.397,271.32 270.5,273C 267.207,273.958 264.207,274.292 261.5,274C 261.833,273.667 262.167,273.333 262.5,273C 260.801,270.838 259.968,268.672 260,266.5C 259.71,268.044 259.044,269.377 258,270.5C 257.508,269.451 257.674,268.451 258.5,267.5C 256.833,266.167 255.167,266.167 253.5,267.5C 254.025,268.192 254.692,268.692 255.5,269C 251.247,270.956 247.08,270.789 243,268.5C 241.667,269.167 240.667,270.167 240,271.5C 239.395,269.519 238.395,269.185 237,270.5C 234.066,267.547 231.899,268.047 230.5,272C 227.363,272.601 224.363,273.601 221.5,275C 222.171,275.986 222.171,277.153 221.5,278.5C 219.685,274.521 216.685,271.688 212.5,270C 205.563,268.712 198.563,268.212 191.5,268.5C 192.952,267.698 194.618,267.198 196.5,267C 191.139,266.391 185.805,266.558 180.5,267.5C 179.448,267.649 178.448,267.483 177.5,267C 180.101,266.08 182.768,265.413 185.5,265C 183.255,262.765 180.755,261.932 178,262.5C 176.477,260.17 175.977,257.836 176.5,255.5C 175.726,254.289 174.893,254.289 174,255.5C 172.796,250.854 172.296,246.187 172.5,241.5C 169.708,241.548 167.875,240.215 167,237.5C 166.506,235.866 166.34,234.199 166.5,232.5C 165.5,232.5 164.5,232.5 163.5,232.5C 170.051,231.624 176.717,230.624 183.5,229.5C 183.918,230.222 184.584,230.722 185.5,231C 184.422,231.674 183.755,232.674 183.5,234C 186.002,236.21 187.668,239.043 188.5,242.5C 189.635,241.897 190.635,241.564 191.5,241.5C 189.244,240.579 188.244,238.912 188.5,236.5C 189.5,236.5 190.5,236.5 191.5,236.5C 191.5,234.833 191.5,233.167 191.5,231.5C 197.495,232.335 203.495,232.835 209.5,233C 208.871,226.956 210.538,226.29 214.5,231C 216.18,231.034 217.68,231.201 219,231.5C 219.492,230.451 219.326,229.451 218.5,228.5C 222.039,227.728 224.705,229.061 226.5,232.5C 231.914,233.325 237.247,233.658 242.5,233.5C 243.262,232.372 243.929,231.205 244.5,230C 247.167,229.667 249.833,229.333 252.5,229C 253.595,227.325 255.095,226.158 257,225.5C 260.09,227.384 263.257,228.051 266.5,227.5C 267.932,227.267 268.432,226.6 268,225.5C 266.703,226.784 265.536,226.617 264.5,225C 268.496,224.078 271.996,224.911 275,227.5C 276.924,225.244 279.424,224.244 282.5,224.5C 290.376,225.346 297.876,225.68 305,225.5C 305.915,224.672 306.581,223.672 307,222.5C 308.18,223.684 309.68,224.351 311.5,224.5C 313.548,224.328 315.548,223.995 317.5,223.5 Z"/></g>
<g><path style="opacity:1" fill="#7a1691" d="M 163.5,232.5 C 164.5,232.5 165.5,232.5 166.5,232.5C 166.34,234.199 166.506,235.866 167,237.5C 167.875,240.215 169.708,241.548 172.5,241.5C 172.296,246.187 172.796,250.854 174,255.5C 174.893,254.289 175.726,254.289 176.5,255.5C 175.977,257.836 176.477,260.17 178,262.5C 180.755,261.932 183.255,262.765 185.5,265C 182.768,265.413 180.101,266.08 177.5,267C 178.448,267.483 179.448,267.649 180.5,267.5C 180.158,268.338 179.492,268.672 178.5,268.5C 174.445,268.824 170.445,268.491 166.5,267.5C 164.785,265.126 162.785,262.96 160.5,261C 161.357,260.311 162.023,259.478 162.5,258.5C 160.276,256.774 158.609,254.608 157.5,252C 157.73,249.035 158.23,246.535 159,244.5C 157.556,242.845 155.722,242.178 153.5,242.5C 153.833,240.5 154.167,238.5 154.5,236.5C 153.5,236.5 152.5,236.5 151.5,236.5C 151.611,235.883 151.944,235.383 152.5,235C 156.07,233.69 159.737,232.857 163.5,232.5 Z"/></g>
<g><path style="opacity:1" fill="#982fa5" d="M 151.5,236.5 C 152.5,236.5 153.5,236.5 154.5,236.5C 154.167,238.5 153.833,240.5 153.5,242.5C 155.722,242.178 157.556,242.845 159,244.5C 158.23,246.535 157.73,249.035 157.5,252C 158.609,254.608 160.276,256.774 162.5,258.5C 162.023,259.478 161.357,260.311 160.5,261C 162.785,262.96 164.785,265.126 166.5,267.5C 170.445,268.491 174.445,268.824 178.5,268.5C 178.842,269.338 179.508,269.672 180.5,269.5C 178.786,270.738 176.786,271.405 174.5,271.5C 164.505,274.166 154.505,274.833 144.5,273.5C 148.5,273.5 152.5,273.5 156.5,273.5C 154.163,267.326 151.163,261.493 147.5,256C 149.155,251.918 148.488,248.252 145.5,245C 146.784,243.703 146.617,242.536 145,241.5C 143.989,242.337 142.822,242.67 141.5,242.5C 144.161,239.498 147.495,237.498 151.5,236.5 Z"/></g>
<g><path style="opacity:1" fill="#590772" d="M 185.5,216.5 C 191.537,216.171 197.537,216.504 203.5,217.5C 202.675,218.386 201.675,218.719 200.5,218.5C 200.5,219.833 200.5,221.167 200.5,222.5C 199.178,222.33 198.011,222.663 197,223.5C 196.125,221.487 194.791,221.487 193,223.5C 190.519,221.686 187.685,221.02 184.5,221.5C 184.52,223.143 183.853,224.476 182.5,225.5C 182.879,227.213 183.879,228.213 185.5,228.5C 185.158,229.338 184.492,229.672 183.5,229.5C 176.717,230.624 170.051,231.624 163.5,232.5C 159.737,232.857 156.07,233.69 152.5,235C 151.944,235.383 151.611,235.883 151.5,236.5C 147.495,237.498 144.161,239.498 141.5,242.5C 138.185,245.125 135.851,248.458 134.5,252.5C 133.656,256.099 133.323,259.766 133.5,263.5C 132.414,263.38 131.747,262.713 131.5,261.5C 131.213,256.274 129.213,251.941 125.5,248.5C 123.655,233.882 129.989,224.882 144.5,221.5C 147.833,221.167 151.167,220.833 154.5,220.5C 159.37,220.31 164.036,219.644 168.5,218.5C 174.404,218.679 180.071,218.012 185.5,216.5 Z"/></g>
<g><path style="opacity:1" fill="#bd5dbf" d="M 139.5,270.5 C 138.167,269.5 136.833,268.5 135.5,267.5C 134.833,266.167 134.167,264.833 133.5,263.5C 133.323,259.766 133.656,256.099 134.5,252.5C 136.343,251.754 137.676,250.421 138.5,248.5C 141.305,254.754 143.805,261.087 146,267.5C 147.675,268.595 148.842,270.095 149.5,272C 146.16,271.845 142.826,271.345 139.5,270.5 Z"/></g>
<g><path style="opacity:1" fill="#ae48b4" d="M 144.5,273.5 C 142.326,273.25 140.659,272.25 139.5,270.5C 142.826,271.345 146.16,271.845 149.5,272C 148.842,270.095 147.675,268.595 146,267.5C 143.805,261.087 141.305,254.754 138.5,248.5C 137.676,250.421 136.343,251.754 134.5,252.5C 135.851,248.458 138.185,245.125 141.5,242.5C 142.822,242.67 143.989,242.337 145,241.5C 146.617,242.536 146.784,243.703 145.5,245C 148.488,248.252 149.155,251.918 147.5,256C 151.163,261.493 154.163,267.326 156.5,273.5C 152.5,273.5 148.5,273.5 144.5,273.5 Z"/></g>
<g><path style="opacity:1" fill="#ca7cd8" d="M 191.5,268.5 C 187.881,269.244 184.215,269.577 180.5,269.5C 179.508,269.672 178.842,269.338 178.5,268.5C 179.492,268.672 180.158,268.338 180.5,267.5C 185.805,266.558 191.139,266.391 196.5,267C 194.618,267.198 192.952,267.698 191.5,268.5 Z"/></g>
<g><path style="opacity:1" fill="#510668" d="M 299.5,259.5 C 299.692,263.636 299.026,267.636 297.5,271.5C 298.822,276.071 299.655,280.738 300,285.5C 300.333,279.833 300.667,274.167 301,268.5C 301.333,274.833 301.667,281.167 302,287.5C 302.278,286.584 302.778,285.918 303.5,285.5C 303.5,286.5 303.5,287.5 303.5,288.5C 304.188,296.898 306.854,304.565 311.5,311.5C 310.883,311.611 310.383,311.944 310,312.5C 307.907,310.222 306.407,307.556 305.5,304.5C 304.804,307.464 304.804,310.131 305.5,312.5C 305.167,312.5 304.833,312.5 304.5,312.5C 302.077,306.893 300.077,301.226 298.5,295.5C 296.897,286.582 296.23,277.582 296.5,268.5C 297.265,265.33 298.265,262.33 299.5,259.5 Z"/></g>
<g><path style="opacity:1" fill="#531a65" d="M 317.5,227.5 C 307.827,245.528 303.16,264.861 303.5,285.5C 302.778,285.918 302.278,286.584 302,287.5C 301.667,281.167 301.333,274.833 301,268.5C 300.667,274.167 300.333,279.833 300,285.5C 299.655,280.738 298.822,276.071 297.5,271.5C 299.026,267.636 299.692,263.636 299.5,259.5C 302.821,253.182 305.321,246.515 307,239.5C 307.893,240.711 308.726,240.711 309.5,239.5C 311.333,235.833 313.167,232.167 315,228.5C 315.671,227.748 316.504,227.414 317.5,227.5 Z"/></g>
<g><path style="opacity:1" fill="#580573" d="M 135.5,267.5 C 136.833,268.5 138.167,269.5 139.5,270.5C 140.659,272.25 142.326,273.25 144.5,273.5C 154.505,274.833 164.505,274.166 174.5,271.5C 180.06,272.944 185.727,273.611 191.5,273.5C 186.386,275.36 186.386,277.027 191.5,278.5C 187.376,279.631 183.709,281.298 180.5,283.5C 178.095,284.768 175.428,285.435 172.5,285.5C 169.402,285.587 169.068,285.087 171.5,284C 171,283.833 170.5,283.667 170,283.5C 163.229,287.594 156.063,288.427 148.5,286C 147.036,284.136 146.036,281.969 145.5,279.5C 144.269,280.651 144.269,281.817 145.5,283C 144.004,283.507 142.837,283.007 142,281.5C 139.115,277.131 136.949,272.464 135.5,267.5 Z"/></g>
<g><path style="opacity:1" fill="#400855" d="M 191.5,268.5 C 198.563,268.212 205.563,268.712 212.5,270C 216.685,271.688 219.685,274.521 221.5,278.5C 221.665,281.85 221.498,285.183 221,288.5C 218.67,292.322 216.17,295.988 213.5,299.5C 210.484,302.52 207.817,305.854 205.5,309.5C 202.355,312.46 199.688,315.793 197.5,319.5C 192.822,324.179 188.489,329.179 184.5,334.5C 184.672,332.331 184.338,329.997 183.5,327.5C 183.343,326.127 183.51,324.793 184,323.5C 187.1,319.644 190.433,315.977 194,312.5C 194.483,311.552 194.649,310.552 194.5,309.5C 200.753,302.743 205.586,295.077 209,286.5C 209.667,284.5 209.667,282.5 209,280.5C 204.921,279.371 200.755,279.204 196.5,280C 191.225,281.482 185.892,282.648 180.5,283.5C 183.709,281.298 187.376,279.631 191.5,278.5C 186.386,277.027 186.386,275.36 191.5,273.5C 185.727,273.611 180.06,272.944 174.5,271.5C 176.786,271.405 178.786,270.738 180.5,269.5C 184.215,269.577 187.881,269.244 191.5,268.5 Z"/></g>
<g><path style="opacity:1" fill="#70307e" d="M 125.5,248.5 C 129.213,251.941 131.213,256.274 131.5,261.5C 131.747,262.713 132.414,263.38 133.5,263.5C 134.167,264.833 134.833,266.167 135.5,267.5C 136.949,272.464 139.115,277.131 142,281.5C 142.837,283.007 144.004,283.507 145.5,283C 144.269,281.817 144.269,280.651 145.5,279.5C 146.036,281.969 147.036,284.136 148.5,286C 156.063,288.427 163.229,287.594 170,283.5C 170.5,283.667 171,283.833 171.5,284C 169.068,285.087 169.402,285.587 172.5,285.5C 163.296,290.384 153.962,290.551 144.5,286C 138.624,279.76 134.124,272.594 131,264.5C 128.859,259.244 127.026,253.91 125.5,248.5 Z"/></g>
<g><path style="opacity:1" fill="#680984" d="M 296.5,268.5 C 296.23,277.582 296.897,286.582 298.5,295.5C 296.438,295.997 294.271,296.33 292,296.5C 288.75,294.249 285.583,294.583 282.5,297.5C 281.833,296.833 281.167,296.167 280.5,295.5C 279.304,295.846 279.304,296.346 280.5,297C 278.765,297.651 277.098,297.485 275.5,296.5C 274.5,297.167 273.5,297.833 272.5,298.5C 271.312,297.16 269.812,296.493 268,296.5C 265.123,297.295 262.456,297.295 260,296.5C 256.75,298.819 253.416,300.153 250,300.5C 248.518,298.219 246.851,298.219 245,300.5C 244.326,299.422 243.326,298.755 242,298.5C 240.135,298.706 238.468,299.372 237,300.5C 234.994,298.998 233.328,299.331 232,301.5C 227.96,299.253 223.96,299.253 220,301.5C 218.166,299.244 216.499,299.244 215,301.5C 214.722,300.584 214.222,299.918 213.5,299.5C 216.17,295.988 218.67,292.322 221,288.5C 221.498,285.183 221.665,281.85 221.5,278.5C 222.171,277.153 222.171,275.986 221.5,275C 224.363,273.601 227.363,272.601 230.5,272C 231.899,268.047 234.066,267.547 237,270.5C 238.395,269.185 239.395,269.519 240,271.5C 240.667,270.167 241.667,269.167 243,268.5C 247.08,270.789 251.247,270.956 255.5,269C 254.692,268.692 254.025,268.192 253.5,267.5C 255.167,266.167 256.833,266.167 258.5,267.5C 257.674,268.451 257.508,269.451 258,270.5C 259.044,269.377 259.71,268.044 260,266.5C 259.968,268.672 260.801,270.838 262.5,273C 262.167,273.333 261.833,273.667 261.5,274C 264.207,274.292 267.207,273.958 270.5,273C 269.397,271.32 269.73,269.82 271.5,268.5C 279.687,268.727 288.021,268.727 296.5,268.5 Z"/></g>
<g><path style="opacity:1" fill="#65316c" d="M 303.5,288.5 C 305.983,296.473 309.317,304.14 313.5,311.5C 312.604,312.506 311.938,312.506 311.5,311.5C 306.854,304.565 304.188,296.898 303.5,288.5 Z"/></g>
<g><path style="opacity:1" fill="#741490" d="M 298.5,295.5 C 300.077,301.226 302.077,306.893 304.5,312.5C 303.417,312.539 302.417,312.873 301.5,313.5C 300.571,309.684 298.405,308.35 295,309.5C 293,306.833 291,306.833 289,309.5C 288.667,309.167 288.333,308.833 288,308.5C 284.83,309.596 281.83,310.262 279,310.5C 278.055,310.095 277.388,309.428 277,308.5C 276.3,310.032 275.134,311.032 273.5,311.5C 270.227,310.415 266.894,310.248 263.5,311C 265.5,311.333 267.5,311.667 269.5,312C 267.598,312.199 266.098,313.033 265,314.5C 263.184,313.671 261.351,312.837 259.5,312C 262.063,311.237 262.063,310.737 259.5,310.5C 257.267,311.615 255.101,311.615 253,310.5C 251.451,313.003 249.784,313.003 248,310.5C 246.915,311.293 245.748,311.96 244.5,312.5C 241.978,311.884 239.144,311.55 236,311.5C 235.395,313.481 234.395,313.815 233,312.5C 230.667,313.167 228.333,313.833 226,314.5C 223.766,314.626 221.432,314.293 219,313.5C 217.981,314.687 216.814,315.687 215.5,316.5C 215.167,315.833 214.833,315.167 214.5,314.5C 211.742,314.381 208.908,314.715 206,315.5C 205.167,314.667 204.333,313.833 203.5,313C 204.823,312.184 205.489,311.017 205.5,309.5C 207.817,305.854 210.484,302.52 213.5,299.5C 214.222,299.918 214.722,300.584 215,301.5C 216.499,299.244 218.166,299.244 220,301.5C 223.96,299.253 227.96,299.253 232,301.5C 233.328,299.331 234.994,298.998 237,300.5C 238.468,299.372 240.135,298.706 242,298.5C 243.326,298.755 244.326,299.422 245,300.5C 246.851,298.219 248.518,298.219 250,300.5C 253.416,300.153 256.75,298.819 260,296.5C 262.456,297.295 265.123,297.295 268,296.5C 269.812,296.493 271.312,297.16 272.5,298.5C 273.5,297.833 274.5,297.167 275.5,296.5C 277.098,297.485 278.765,297.651 280.5,297C 279.304,296.346 279.304,295.846 280.5,295.5C 281.167,296.167 281.833,296.833 282.5,297.5C 285.583,294.583 288.75,294.249 292,296.5C 294.271,296.33 296.438,295.997 298.5,295.5 Z"/></g>
<g><path style="opacity:1" fill="#7d1d9a" d="M 304.5,312.5 C 304.833,312.5 305.167,312.5 305.5,312.5C 306.5,315.167 307.5,317.833 308.5,320.5C 304.454,321.211 300.788,321.211 297.5,320.5C 297.167,320.833 296.833,321.167 296.5,321.5C 297.729,322.281 299.062,322.781 300.5,323C 298.324,323.163 296.491,323.996 295,325.5C 291.004,323.958 286.838,322.958 282.5,322.5C 280.124,326.216 276.624,327.216 272,325.5C 268.739,325.306 265.739,325.972 263,327.5C 259.034,325.288 255.034,323.955 251,323.5C 247.472,324.984 243.806,325.984 240,326.5C 237.126,324.109 235.626,324.442 235.5,327.5C 232.482,327.335 229.482,327.502 226.5,328C 227.205,329.557 226.539,330.723 224.5,331.5C 222.167,328.833 219.833,328.833 217.5,331.5C 216.304,331.154 216.304,330.654 217.5,330C 214.007,328.996 210.841,329.496 208,331.5C 203.901,330.062 200.234,328.395 197,326.5C 196.444,324.115 196.61,321.782 197.5,319.5C 199.688,315.793 202.355,312.46 205.5,309.5C 205.489,311.017 204.823,312.184 203.5,313C 204.333,313.833 205.167,314.667 206,315.5C 208.908,314.715 211.742,314.381 214.5,314.5C 214.833,315.167 215.167,315.833 215.5,316.5C 216.814,315.687 217.981,314.687 219,313.5C 221.432,314.293 223.766,314.626 226,314.5C 228.333,313.833 230.667,313.167 233,312.5C 234.395,313.815 235.395,313.481 236,311.5C 239.144,311.55 241.978,311.884 244.5,312.5C 245.748,311.96 246.915,311.293 248,310.5C 249.784,313.003 251.451,313.003 253,310.5C 255.101,311.615 257.267,311.615 259.5,310.5C 262.063,310.737 262.063,311.237 259.5,312C 261.351,312.837 263.184,313.671 265,314.5C 266.098,313.033 267.598,312.199 269.5,312C 267.5,311.667 265.5,311.333 263.5,311C 266.894,310.248 270.227,310.415 273.5,311.5C 275.134,311.032 276.3,310.032 277,308.5C 277.388,309.428 278.055,310.095 279,310.5C 281.83,310.262 284.83,309.596 288,308.5C 288.333,308.833 288.667,309.167 289,309.5C 291,306.833 293,306.833 295,309.5C 298.405,308.35 300.571,309.684 301.5,313.5C 302.417,312.873 303.417,312.539 304.5,312.5 Z"/></g>
<g><path style="opacity:1" fill="#882aa1" d="M 197.5,319.5 C 196.61,321.782 196.444,324.115 197,326.5C 200.234,328.395 203.901,330.062 208,331.5C 210.841,329.496 214.007,328.996 217.5,330C 216.304,330.654 216.304,331.154 217.5,331.5C 219.833,328.833 222.167,328.833 224.5,331.5C 226.539,330.723 227.205,329.557 226.5,328C 229.482,327.502 232.482,327.335 235.5,327.5C 235.626,324.442 237.126,324.109 240,326.5C 243.806,325.984 247.472,324.984 251,323.5C 255.034,323.955 259.034,325.288 263,327.5C 265.739,325.972 268.739,325.306 272,325.5C 276.624,327.216 280.124,326.216 282.5,322.5C 286.838,322.958 291.004,323.958 295,325.5C 296.491,323.996 298.324,323.163 300.5,323C 299.062,322.781 297.729,322.281 296.5,321.5C 296.833,321.167 297.167,320.833 297.5,320.5C 300.788,321.211 304.454,321.211 308.5,320.5C 310.008,322.181 311.008,324.181 311.5,326.5C 309.903,327.09 308.569,328.09 307.5,329.5C 304.102,329.393 300.769,329.393 297.5,329.5C 294.872,331.633 292.039,331.966 289,330.5C 288.581,331.672 287.915,332.672 287,333.5C 282.204,332.365 277.037,332.365 271.5,333.5C 268.177,331.734 264.844,331.401 261.5,332.5C 261.762,333.978 261.429,335.311 260.5,336.5C 258.929,335.691 257.262,335.357 255.5,335.5C 252.686,333.904 249.686,333.404 246.5,334C 241.921,338.074 237.921,342.574 234.5,347.5C 232.736,346.288 231.07,346.621 229.5,348.5C 228.808,347.975 228.308,347.308 228,346.5C 212.033,346.923 196.2,346.923 180.5,346.5C 180.541,350.243 179.874,350.41 178.5,347C 179.252,346.329 179.586,345.496 179.5,344.5C 181.42,341.661 183.087,338.661 184.5,335.5C 184.5,335.167 184.5,334.833 184.5,334.5C 188.489,329.179 192.822,324.179 197.5,319.5 Z"/></g>
<g><path style="opacity:1" fill="#552065" d="M 194.5,309.5 C 194.649,310.552 194.483,311.552 194,312.5C 190.433,315.977 187.1,319.644 184,323.5C 183.51,324.793 183.343,326.127 183.5,327.5C 182.85,327.196 182.183,326.863 181.5,326.5C 176.125,333.203 170.458,339.536 164.5,345.5C 166.397,342.053 168.563,338.72 171,335.5C 179.069,326.937 186.902,318.27 194.5,309.5 Z"/></g>
<g><path style="opacity:1" fill="#691f7d" d="M 311.5,311.5 C 311.938,312.506 312.604,312.506 313.5,311.5C 318.668,319.164 323.335,327.164 327.5,335.5C 326.357,335.908 325.357,336.575 324.5,337.5C 325.274,338.711 326.107,338.711 327,337.5C 327.789,339.58 328.956,341.414 330.5,343C 330.223,344.892 329.223,346.225 327.5,347C 328.406,350.184 330.239,351.017 333,349.5C 333.018,355.077 333.184,360.744 333.5,366.5C 333.167,366.5 332.833,366.5 332.5,366.5C 329.696,359.558 326.362,352.891 322.5,346.5C 319.337,339.504 315.671,332.838 311.5,326.5C 311.008,324.181 310.008,322.181 308.5,320.5C 307.5,317.833 306.5,315.167 305.5,312.5C 304.804,310.131 304.804,307.464 305.5,304.5C 306.407,307.556 307.907,310.222 310,312.5C 310.383,311.944 310.883,311.611 311.5,311.5 Z"/></g>
<g><path style="opacity:1" fill="#9235a8" d="M 311.5,326.5 C 315.671,332.838 319.337,339.504 322.5,346.5C 321.778,346.918 321.278,347.584 321,348.5C 320.667,347.833 320.333,347.167 320,346.5C 319,347.833 318,347.833 317,346.5C 315.795,347.071 314.628,347.738 313.5,348.5C 314.815,349.895 314.481,350.895 312.5,351.5C 309.933,350.761 307.6,350.761 305.5,351.5C 302.905,349.567 300.572,349.567 298.5,351.5C 297.186,350.687 296.019,349.687 295,348.5C 291.623,351.913 287.956,352.58 284,350.5C 282.602,351.051 281.268,351.384 280,351.5C 278.667,350.833 277.333,350.167 276,349.5C 274,346.167 272,342.833 270,339.5C 268.364,337.102 266.198,335.935 263.5,336C 269.079,340.352 272.746,345.852 274.5,352.5C 276.793,359.061 279.46,365.395 282.5,371.5C 283.576,374.871 284.576,378.204 285.5,381.5C 285.657,382.873 285.49,384.207 285,385.5C 284.261,387.889 283.095,389.889 281.5,391.5C 281.316,387.921 281.983,384.587 283.5,381.5C 281.339,381.174 279.506,380.174 278,378.5C 275.532,375.528 273.698,372.194 272.5,368.5C 272.043,367.702 271.376,367.369 270.5,367.5C 267.322,361.804 264.656,355.804 262.5,349.5C 262.201,345.895 261.035,342.561 259,339.5C 258.329,338.748 257.496,338.414 256.5,338.5C 256.443,337.391 256.11,336.391 255.5,335.5C 257.262,335.357 258.929,335.691 260.5,336.5C 261.429,335.311 261.762,333.978 261.5,332.5C 264.844,331.401 268.177,331.734 271.5,333.5C 277.037,332.365 282.204,332.365 287,333.5C 287.915,332.672 288.581,331.672 289,330.5C 292.039,331.966 294.872,331.633 297.5,329.5C 300.769,329.393 304.102,329.393 307.5,329.5C 308.569,328.09 309.903,327.09 311.5,326.5 Z"/></g>
<g><path style="opacity:0.796" fill="#8d4d9a" d="M 256.5,338.5 C 257.496,338.414 258.329,338.748 259,339.5C 261.035,342.561 262.201,345.895 262.5,349.5C 260.506,345.873 258.506,342.206 256.5,338.5 Z"/></g>
<g><path style="opacity:1" fill="#621477" d="M 255.5,335.5 C 256.11,336.391 256.443,337.391 256.5,338.5C 254.938,338.733 253.605,339.4 252.5,340.5C 250.623,340.9 249.123,341.9 248,343.5C 245.322,342.57 244.822,343.57 246.5,346.5C 244.028,349.115 242.362,352.115 241.5,355.5C 240.107,356.26 238.607,356.926 237,357.5C 236.167,357.167 235.333,356.833 234.5,356.5C 236.279,354.807 236.779,352.807 236,350.5C 234.488,351.257 233.154,352.257 232,353.5C 231.601,353.272 231.435,352.938 231.5,352.5C 232.752,350.999 233.752,349.332 234.5,347.5C 237.921,342.574 241.921,338.074 246.5,334C 249.686,333.404 252.686,333.904 255.5,335.5 Z"/></g>
<g><path style="opacity:1" fill="#a147b5" d="M 322.5,346.5 C 326.362,352.891 329.696,359.558 332.5,366.5C 331.609,368.291 330.609,370.124 329.5,372C 327.19,372.497 324.857,372.663 322.5,372.5C 322.5,371.167 322.5,369.833 322.5,368.5C 316.491,368.666 310.491,368.499 304.5,368C 303.584,367.626 302.75,367.126 302,366.5C 297.199,367.192 292.365,367.858 287.5,368.5C 285.176,368.123 284.509,367.123 285.5,365.5C 284.518,362.467 282.518,360.8 279.5,360.5C 278.865,356.757 277.365,353.424 275,350.5C 274.536,351.094 274.369,351.761 274.5,352.5C 272.746,345.852 269.079,340.352 263.5,336C 266.198,335.935 268.364,337.102 270,339.5C 272,342.833 274,346.167 276,349.5C 277.333,350.167 278.667,350.833 280,351.5C 281.268,351.384 282.602,351.051 284,350.5C 287.956,352.58 291.623,351.913 295,348.5C 296.019,349.687 297.186,350.687 298.5,351.5C 300.572,349.567 302.905,349.567 305.5,351.5C 307.6,350.761 309.933,350.761 312.5,351.5C 314.481,350.895 314.815,349.895 313.5,348.5C 314.628,347.738 315.795,347.071 317,346.5C 318,347.833 319,347.833 320,346.5C 320.333,347.167 320.667,347.833 321,348.5C 321.278,347.584 321.778,346.918 322.5,346.5 Z"/></g>
<g><path style="opacity:1" fill="#c87ed7" d="M 184.5,335.5 C 183.087,338.661 181.42,341.661 179.5,344.5C 176.815,347.19 174.482,350.19 172.5,353.5C 169.833,356.5 167.167,359.5 164.5,362.5C 164.5,361.5 164.5,360.5 164.5,359.5C 170.82,351.183 177.486,343.183 184.5,335.5 Z"/></g>
<g><path style="opacity:1" fill="#9739ab" d="M 179.5,344.5 C 179.586,345.496 179.252,346.329 178.5,347C 179.874,350.41 180.541,350.243 180.5,346.5C 196.2,346.923 212.033,346.923 228,346.5C 228.308,347.308 228.808,347.975 229.5,348.5C 231.07,346.621 232.736,346.288 234.5,347.5C 233.752,349.332 232.752,350.999 231.5,352.5C 230.061,354.36 228.395,356.027 226.5,357.5C 224.952,356.206 222.952,355.539 220.5,355.5C 211.115,355.991 201.948,355.991 193,355.5C 191.779,356.272 190.779,357.272 190,358.5C 189.779,355.057 188.779,354.724 187,357.5C 184.113,355.566 181.446,355.566 179,357.5C 177.5,357 176,356.5 174.5,356C 175.609,354.187 174.942,353.354 172.5,353.5C 174.482,350.19 176.815,347.19 179.5,344.5 Z"/></g>
<g><path style="opacity:0.906" fill="#6e3a79" d="M 252.5,340.5 C 249.188,345.804 245.521,350.804 241.5,355.5C 242.362,352.115 244.028,349.115 246.5,346.5C 244.822,343.57 245.322,342.57 248,343.5C 249.123,341.9 250.623,340.9 252.5,340.5 Z"/></g>
<g><path style="opacity:1" fill="#78348a" d="M 327.5,335.5 C 332.923,343.341 337.59,351.674 341.5,360.5C 341.579,362.666 342.246,364.666 343.5,366.5C 342.976,368.383 342.309,370.216 341.5,372C 341.833,372.5 342.167,373 342.5,373.5C 343.167,372.5 343.833,371.5 344.5,370.5C 345.833,372.833 345.833,375.167 344.5,377.5C 342.259,377.881 339.926,378.048 337.5,378C 336.773,379.399 336.273,380.899 336,382.5C 335.814,379.964 335.314,377.631 334.5,375.5C 334.632,372.43 334.299,369.43 333.5,366.5C 333.184,360.744 333.018,355.077 333,349.5C 330.239,351.017 328.406,350.184 327.5,347C 329.223,346.225 330.223,344.892 330.5,343C 328.956,341.414 327.789,339.58 327,337.5C 326.107,338.711 325.274,338.711 324.5,337.5C 325.357,336.575 326.357,335.908 327.5,335.5 Z"/></g>
<g><path style="opacity:1" fill="#5d0d77" d="M 183.5,327.5 C 184.338,329.997 184.672,332.331 184.5,334.5C 184.5,334.833 184.5,335.167 184.5,335.5C 177.486,343.183 170.82,351.183 164.5,359.5C 159.655,364.396 156.822,370.396 156,377.5C 155.503,374.854 155.336,372.187 155.5,369.5C 156.305,360.578 159.305,352.578 164.5,345.5C 170.458,339.536 176.125,333.203 181.5,326.5C 182.183,326.863 182.85,327.196 183.5,327.5 Z"/></g>
<g><path style="opacity:1" fill="#a046b4" d="M 172.5,353.5 C 174.942,353.354 175.609,354.187 174.5,356C 176,356.5 177.5,357 179,357.5C 181.446,355.566 184.113,355.566 187,357.5C 188.779,354.724 189.779,355.057 190,358.5C 190.779,357.272 191.779,356.272 193,355.5C 201.948,355.991 211.115,355.991 220.5,355.5C 222.952,355.539 224.952,356.206 226.5,357.5C 222.984,363.2 218.984,368.533 214.5,373.5C 211.461,373.08 208.127,372.413 204.5,371.5C 202.514,371.787 200.68,372.453 199,373.5C 196.909,373.421 194.742,373.087 192.5,372.5C 188.726,375.991 184.726,376.325 180.5,373.5C 178.666,374.754 176.666,375.421 174.5,375.5C 174.5,376.833 174.5,378.167 174.5,379.5C 168.881,376.881 164.548,372.881 161.5,367.5C 162.752,365.999 163.752,364.332 164.5,362.5C 167.167,359.5 169.833,356.5 172.5,353.5 Z"/></g>
<g><path style="opacity:1" fill="#762282" d="M 241.5,355.5 C 236.592,363.41 230.925,370.743 224.5,377.5C 224.421,376.07 224.754,374.736 225.5,373.5C 224.675,372.614 223.675,372.281 222.5,372.5C 222.5,373.5 222.5,374.5 222.5,375.5C 221.5,375.5 220.5,375.5 219.5,375.5C 218.833,371.5 218.167,371.5 217.5,375.5C 216.5,375.5 215.5,375.5 214.5,375.5C 214.649,376.552 214.483,377.552 214,378.5C 211.6,380.415 209.1,382.081 206.5,383.5C 209.547,380.455 212.213,377.122 214.5,373.5C 218.984,368.533 222.984,363.2 226.5,357.5C 228.395,356.027 230.061,354.36 231.5,352.5C 231.435,352.938 231.601,353.272 232,353.5C 233.154,352.257 234.488,351.257 236,350.5C 236.779,352.807 236.279,354.807 234.5,356.5C 235.333,356.833 236.167,357.167 237,357.5C 238.607,356.926 240.107,356.26 241.5,355.5 Z"/></g>
<g><path style="opacity:1" fill="#ab57bd" d="M 214.5,373.5 C 212.213,377.122 209.547,380.455 206.5,383.5C 196.992,389.092 187.659,388.759 178.5,382.5C 177.128,381.488 175.795,380.488 174.5,379.5C 174.5,378.167 174.5,376.833 174.5,375.5C 176.666,375.421 178.666,374.754 180.5,373.5C 184.726,376.325 188.726,375.991 192.5,372.5C 194.742,373.087 196.909,373.421 199,373.5C 200.68,372.453 202.514,371.787 204.5,371.5C 208.127,372.413 211.461,373.08 214.5,373.5 Z"/></g>
<g><path style="opacity:1" fill="#651d74" d="M 161.5,367.5 C 164.548,372.881 168.881,376.881 174.5,379.5C 175.795,380.488 177.128,381.488 178.5,382.5C 178.44,383.043 178.107,383.376 177.5,383.5C 175.922,382.36 174.256,381.86 172.5,382C 173.576,383.726 173.743,385.559 173,387.5C 171.927,386.72 170.76,386.887 169.5,388C 169.057,389.518 169.724,390.685 171.5,391.5C 169.354,392.057 167.354,392.39 165.5,392.5C 156.979,385.283 155.646,376.949 161.5,367.5 Z"/></g>
<g><path style="opacity:1" fill="#a050ae" d="M 270.5,367.5 C 271.376,367.369 272.043,367.702 272.5,368.5C 273.698,372.194 275.532,375.528 278,378.5C 279.506,380.174 281.339,381.174 283.5,381.5C 281.983,384.587 281.316,387.921 281.5,391.5C 277.323,383.808 273.656,375.808 270.5,367.5 Z"/></g>
<g><path style="opacity:1" fill="#a95cb9" d="M 164.5,359.5 C 164.5,360.5 164.5,361.5 164.5,362.5C 163.752,364.332 162.752,365.999 161.5,367.5C 155.646,376.949 156.979,385.283 165.5,392.5C 174.454,401.041 185.121,405.041 197.5,404.5C 187.516,408.07 178.183,406.736 169.5,400.5C 157.967,393.111 153.3,382.778 155.5,369.5C 155.336,372.187 155.503,374.854 156,377.5C 156.822,370.396 159.655,364.396 164.5,359.5 Z"/></g>
<g><path style="opacity:1" fill="#b261c0" d="M 332.5,366.5 C 332.833,366.5 333.167,366.5 333.5,366.5C 334.299,369.43 334.632,372.43 334.5,375.5C 334.813,379.042 334.479,382.375 333.5,385.5C 330.238,383.808 326.571,383.475 322.5,384.5C 322.5,383.5 322.5,382.5 322.5,381.5C 319.346,382.095 316.346,382.095 313.5,381.5C 313.762,382.978 313.429,384.311 312.5,385.5C 310.908,385.583 309.241,385.249 307.5,384.5C 305.575,384.59 304.408,385.59 304,387.5C 301.755,385.208 299.255,384.875 296.5,386.5C 296.996,380.175 295.829,379.841 293,385.5C 292.329,384.748 291.496,384.414 290.5,384.5C 288.733,380.452 287.066,376.285 285.5,372C 284.1,369.538 283.1,369.371 282.5,371.5C 279.46,365.395 276.793,359.061 274.5,352.5C 274.369,351.761 274.536,351.094 275,350.5C 277.365,353.424 278.865,356.757 279.5,360.5C 282.518,360.8 284.518,362.467 285.5,365.5C 284.509,367.123 285.176,368.123 287.5,368.5C 292.365,367.858 297.199,367.192 302,366.5C 302.75,367.126 303.584,367.626 304.5,368C 310.491,368.499 316.491,368.666 322.5,368.5C 322.5,369.833 322.5,371.167 322.5,372.5C 324.857,372.663 327.19,372.497 329.5,372C 330.609,370.124 331.609,368.291 332.5,366.5 Z"/></g>
<g><path style="opacity:1" fill="#88489a" d="M 341.5,360.5 C 347.936,368.321 350.436,377.321 349,387.5C 348.768,388.737 348.268,389.737 347.5,390.5C 345.738,390.643 344.071,390.309 342.5,389.5C 341.201,391.758 340.201,394.092 339.5,396.5C 335.586,396.219 331.92,395.885 328.5,395.5C 328.833,394.833 329.167,394.167 329.5,393.5C 331.873,391.421 333.206,388.754 333.5,385.5C 334.479,382.375 334.813,379.042 334.5,375.5C 335.314,377.631 335.814,379.964 336,382.5C 336.273,380.899 336.773,379.399 337.5,378C 339.926,378.048 342.259,377.881 344.5,377.5C 345.833,375.167 345.833,372.833 344.5,370.5C 343.833,371.5 343.167,372.5 342.5,373.5C 342.167,373 341.833,372.5 341.5,372C 342.309,370.216 342.976,368.383 343.5,366.5C 342.246,364.666 341.579,362.666 341.5,360.5 Z"/></g>
<g><path style="opacity:1" fill="#b871c7" d="M 333.5,385.5 C 333.206,388.754 331.873,391.421 329.5,393.5C 328.23,390.168 326.564,389.835 324.5,392.5C 323.167,391.833 321.833,391.167 320.5,390.5C 315.686,391.684 310.686,391.684 305.5,390.5C 305.657,391.873 305.49,393.207 305,394.5C 302.883,393.657 300.55,393.323 298,393.5C 297.667,394.167 297.333,394.833 297,395.5C 295.037,391.706 292.871,388.039 290.5,384.5C 291.496,384.414 292.329,384.748 293,385.5C 295.829,379.841 296.996,380.175 296.5,386.5C 299.255,384.875 301.755,385.208 304,387.5C 304.408,385.59 305.575,384.59 307.5,384.5C 309.241,385.249 310.908,385.583 312.5,385.5C 313.429,384.311 313.762,382.978 313.5,381.5C 316.346,382.095 319.346,382.095 322.5,381.5C 322.5,382.5 322.5,383.5 322.5,384.5C 326.571,383.475 330.238,383.808 333.5,385.5 Z"/></g>
<g><path style="opacity:1" fill="#a651b7" d="M 285.5,381.5 C 288.968,387.85 292.635,394.183 296.5,400.5C 294.989,401.502 293.322,402.169 291.5,402.5C 291.5,401.5 291.5,400.5 291.5,399.5C 289.784,399.371 288.117,399.038 286.5,398.5C 284.453,396.45 282.786,394.117 281.5,391.5C 283.095,389.889 284.261,387.889 285,385.5C 285.49,384.207 285.657,382.873 285.5,381.5 Z"/></g>
<g><path style="opacity:1" fill="#8a2b8e" d="M 224.5,377.5 C 218.599,386.737 211.599,395.07 203.5,402.5C 201.421,402.971 199.421,403.637 197.5,404.5C 185.121,405.041 174.454,401.041 165.5,392.5C 167.354,392.39 169.354,392.057 171.5,391.5C 169.724,390.685 169.057,389.518 169.5,388C 170.76,386.887 171.927,386.72 173,387.5C 173.743,385.559 173.576,383.726 172.5,382C 174.256,381.86 175.922,382.36 177.5,383.5C 178.107,383.376 178.44,383.043 178.5,382.5C 187.659,388.759 196.992,389.092 206.5,383.5C 209.1,382.081 211.6,380.415 214,378.5C 214.483,377.552 214.649,376.552 214.5,375.5C 215.5,375.5 216.5,375.5 217.5,375.5C 218.167,371.5 218.833,371.5 219.5,375.5C 220.5,375.5 221.5,375.5 222.5,375.5C 222.5,374.5 222.5,373.5 222.5,372.5C 223.675,372.281 224.675,372.614 225.5,373.5C 224.754,374.736 224.421,376.07 224.5,377.5 Z"/></g>
<g><path style="opacity:1" fill="#c17fce" d="M 290.5,384.5 C 292.871,388.039 295.037,391.706 297,395.5C 297.333,394.833 297.667,394.167 298,393.5C 300.55,393.323 302.883,393.657 305,394.5C 305.49,393.207 305.657,391.873 305.5,390.5C 310.686,391.684 315.686,391.684 320.5,390.5C 321.833,391.167 323.167,391.833 324.5,392.5C 326.564,389.835 328.23,390.168 329.5,393.5C 329.167,394.167 328.833,394.833 328.5,395.5C 321.051,403.837 311.717,407.004 300.5,405C 298.959,403.629 297.625,402.129 296.5,400.5C 292.635,394.183 288.968,387.85 285.5,381.5C 284.576,378.204 283.576,374.871 282.5,371.5C 283.1,369.371 284.1,369.538 285.5,372C 287.066,376.285 288.733,380.452 290.5,384.5 Z"/></g>
<g><path style="opacity:1" fill="#9959a6" d="M 347.5,390.5 C 345.29,396.37 341.623,401.036 336.5,404.5C 322.067,414.985 307.734,414.985 293.5,404.5C 290.573,403.243 288.239,401.243 286.5,398.5C 288.117,399.038 289.784,399.371 291.5,399.5C 291.5,400.5 291.5,401.5 291.5,402.5C 293.322,402.169 294.989,401.502 296.5,400.5C 297.625,402.129 298.959,403.629 300.5,405C 311.717,407.004 321.051,403.837 328.5,395.5C 331.92,395.885 335.586,396.219 339.5,396.5C 340.201,394.092 341.201,391.758 342.5,389.5C 344.071,390.309 345.738,390.643 347.5,390.5 Z"/></g>
<g><path style="opacity:1" fill="#d4acda" d="M 169.5,400.5 C 178.183,406.736 187.516,408.07 197.5,404.5C 199.421,403.637 201.421,402.971 203.5,402.5C 203.5,402.833 203.5,403.167 203.5,403.5C 204.209,404.404 205.209,404.737 206.5,404.5C 206.5,405.833 206.5,407.167 206.5,408.5C 195.578,410.375 184.578,411.209 173.5,411C 168.315,410.712 163.649,409.212 159.5,406.5C 160.34,405.265 161.34,404.265 162.5,403.5C 164.888,402.651 167.221,401.651 169.5,400.5 Z"/></g>
<g><path style="opacity:0.016" fill="#eddeea" d="M 348.5,409.5 C 348.897,408.475 349.563,408.308 350.5,409C 349.906,409.464 349.239,409.631 348.5,409.5 Z"/></g>
<g><path style="opacity:0.008" fill="#e8e0eb" d="M 146.5,409.5 C 147.833,410.167 147.833,410.167 146.5,409.5 Z"/></g>
<g><path style="opacity:1" fill="#d0aad7" d="M 293.5,404.5 C 307.734,414.985 322.067,414.985 336.5,404.5C 337.29,405.401 338.29,406.068 339.5,406.5C 340.303,407.423 340.47,408.423 340,409.5C 338.745,410.211 337.579,411.044 336.5,412C 322.815,413.935 309.149,413.935 295.5,412C 291.801,411.513 290.468,409.679 291.5,406.5C 292.167,405.833 292.833,405.167 293.5,404.5 Z"/></g>
<g><path style="opacity:1" fill="#ddc3e0" d="M 162.5,403.5 C 161.34,404.265 160.34,405.265 159.5,406.5C 163.649,409.212 168.315,410.712 173.5,411C 184.578,411.209 195.578,410.375 206.5,408.5C 206.5,407.167 206.5,405.833 206.5,404.5C 205.209,404.737 204.209,404.404 203.5,403.5C 208.172,402.844 211.839,404.344 214.5,408C 214.241,409.261 213.574,410.261 212.5,411C 203.242,413.919 193.742,415.086 184,414.5C 173.433,415.377 163.266,413.877 153.5,410C 152.269,408.817 152.269,407.651 153.5,406.5C 156.234,404.629 159.234,403.629 162.5,403.5 Z"/></g>
<g><path style="opacity:0.008" fill="#e7dfed" d="M 276.5,412.5 C 277.833,413.167 277.833,413.167 276.5,412.5 Z"/></g>
<g><path style="opacity:1" fill="#dec3e3" d="M 291.5,406.5 C 290.468,409.679 291.801,411.513 295.5,412C 309.149,413.935 322.815,413.935 336.5,412C 337.579,411.044 338.745,410.211 340,409.5C 340.47,408.423 340.303,407.423 339.5,406.5C 342.016,406.755 344.35,407.589 346.5,409C 347.731,410.183 347.731,411.349 346.5,412.5C 341.183,414.869 335.683,416.536 330,417.5C 321.371,417.606 312.537,417.44 303.5,417C 298.771,416.727 294.104,416.061 289.5,415C 286.71,414.439 284.377,413.106 282.5,411C 284.923,408.463 287.923,406.963 291.5,406.5 Z"/></g>
</svg>
